<svg xmlns="http://www.w3.org/2000/svg" version="1.1" xmlns:xlink="http://www.w3.org/1999/xlink" xmlns:svgjs="http://svgjs.com/svgjs" width="100" height="100"><svg version="1.1" xmlns="http://www.w3.org/2000/svg" xmlns:xlink="http://www.w3.org/1999/xlink" x="0px" y="0px" viewBox="0 0 100 100" style="enable-background:new 0 0 100 100;" xml:space="preserve">
<style type="text/css">
	.st0{display:none;}
	.st1{display:inline;fill:#ED2525;stroke:#E12626;stroke-miterlimit:10;}
	.st2{display:inline;fill:#FFFFFF;stroke:#E02827;stroke-miterlimit:10;}
	.st3{display:inline;fill:#FFFFFF;stroke:#000000;stroke-miterlimit:10;}
	.st4{display:inline;fill:#E5E5E5;stroke:#848383;stroke-miterlimit:10;}
	.st5{display:inline;fill:#FFFFFF;stroke:#20BBED;stroke-miterlimit:10;}
	.st6{display:inline;fill:none;stroke:#E02827;stroke-miterlimit:10;}
	.st7{display:inline;fill:#939393;stroke:#848383;stroke-miterlimit:10;}
	.st8{display:inline;fill:none;stroke:#848383;stroke-miterlimit:10;}
	.st9{display:inline;fill:#E81E25;stroke:#CE2427;stroke-miterlimit:10;}
	.st10{display:inline;fill:#E5E5E5;stroke:#9B9A9A;stroke-miterlimit:10;}
	.st11{display:inline;fill:#ECF7FA;stroke:#20BBED;stroke-miterlimit:10;}
	.st12{display:inline;fill:#232C5F;stroke:#0F1D39;stroke-miterlimit:10;}
	.st13{display:inline;fill:#304A9B;stroke:#23386D;stroke-miterlimit:10;}
	.st14{display:inline;fill:#6F9FD5;stroke:#4C71B7;stroke-miterlimit:10;}
	.st15{fill:#232C5F;stroke:#0F1D39;stroke-miterlimit:10;}
	.st16{fill:#304A9B;stroke:#23386D;stroke-miterlimit:10;}
	.st17{fill:#6F9FD5;stroke:#4C71B7;stroke-miterlimit:10;}
</style>
<g id="SvgjsG1003" class="st0">
	<path class="st1" d="M87.28,20.22v10.51L12.72,30.9V20.22c0-2.32,1.97-4.2,4.4-4.2h7.43v3.89c-0.82,0.82-1.33,1.95-1.33,3.19
		c0,2.5,2.03,4.52,4.52,4.52s4.52-2.02,4.52-4.52c0-1.24-0.51-2.37-1.33-3.19v-3.89h37.45v3.89c-0.82,0.82-1.32,1.95-1.32,3.19
		c0,2.5,2.02,4.52,4.51,4.52c2.5,0,4.52-2.02,4.52-4.52c0-1.24-0.51-2.37-1.32-3.19v-3.89h8.11C85.31,16.02,87.28,17.9,87.28,20.22z
		"></path>
	<path class="st2" d="M23.22,23.1c0-1.24,0.51-2.37,1.33-3.19v0.77c0,1.51,1.28,2.73,2.86,2.73h0.66c1.58,0,2.86-1.22,2.86-2.73
		v-0.77c0.82,0.82,1.33,1.95,1.33,3.19c0,2.5-2.03,4.52-4.52,4.52S23.22,25.6,23.22,23.1z"></path>
	<path class="st3" d="M67.06,23.1c0-1.24,0.5-2.37,1.32-3.19v0.77c0,1.51,1.28,2.73,2.86,2.73h0.66c1.58,0,2.87-1.22,2.87-2.73
		v-0.77c0.81,0.82,1.32,1.95,1.32,3.19c0,2.5-2.02,4.52-4.52,4.52C69.08,27.62,67.06,25.6,67.06,23.1z"></path>
	<path class="st4" d="M87.28,30.73v45.96c0,2.32-1.97,4.2-4.4,4.2H17.12c-2.43,0-4.4-1.88-4.4-4.2V30.9L87.28,30.73z"></path>
	<path class="st5" d="M30.38,72.11H25.1c-2.01,0-3.63-1.63-3.63-3.63V38.85c0-2.01,1.63-3.63,3.63-3.63h5.29
		c2.01,0,3.63,1.63,3.63,3.63v29.63C34.02,70.48,32.39,72.11,30.38,72.11z"></path>
	<path class="st5" d="M52.24,54.27h-5.29c-2.01,0-3.63-1.63-3.63-3.63V38.85c0-2.01,1.63-3.63,3.63-3.63h5.29
		c2.01,0,3.63,1.63,3.63,3.63v11.78C55.88,52.64,54.25,54.27,52.24,54.27z"></path>
	<path class="st5" d="M74.22,64.62h-5.29c-2.01,0-3.63-1.63-3.63-3.63V38.85c0-2.01,1.63-3.63,3.63-3.63h5.29
		c2.01,0,3.63,1.63,3.63,3.63v22.14C77.85,62.99,76.22,64.62,74.22,64.62z"></path>
	<path class="st6" d="M32.26,23.1c0,2.5-2.03,4.52-4.52,4.52s-4.52-2.02-4.52-4.52c0-1.24,0.51-2.37,1.33-3.19v0.99
		c0,1.58,1.28,2.86,2.86,2.86h0.66c1.58,0,2.86-1.28,2.86-2.86v-0.99C31.75,20.73,32.26,21.86,32.26,23.1z"></path>
	<path class="st6" d="M76.09,23.1c0,2.5-2.02,4.52-4.52,4.52c-2.49,0-4.51-2.02-4.51-4.52c0-1.24,0.5-2.37,1.32-3.19v0.99
		c0,1.58,1.28,2.86,2.86,2.86h0.66c1.58,0,2.87-1.28,2.87-2.86v-0.99C75.58,20.73,76.09,21.86,76.09,23.1z"></path>
	<path class="st7" d="M30.93,12.97v7.71c0,1.51-1.28,2.73-2.86,2.73h-0.66c-1.58,0-2.86-1.22-2.86-2.73v-7.71
		c0-1.58,1.28-2.86,2.86-2.86h0.66C29.65,10.11,30.93,11.39,30.93,12.97z"></path>
	<path class="st8" d="M30.93,20.68v0.22c0,1.58-1.28,2.86-2.86,2.86h-0.66c-1.58,0-2.86-1.28-2.86-2.86v-0.22
		c0,1.51,1.28,2.73,2.86,2.73h0.66C29.65,23.41,30.93,22.19,30.93,20.68z"></path>
	<path class="st7" d="M74.77,12.97v7.71c0,1.51-1.29,2.73-2.87,2.73h-0.66c-1.58,0-2.86-1.22-2.86-2.73v-7.71
		c0-1.58,1.28-2.86,2.86-2.86h0.66C73.48,10.11,74.77,11.39,74.77,12.97z"></path>
	<path class="st8" d="M74.77,20.68v0.22c0,1.58-1.29,2.86-2.87,2.86h-0.66c-1.58,0-2.86-1.28-2.86-2.86v-0.22
		c0,1.51,1.28,2.73,2.86,2.73h0.66C73.48,23.41,74.77,22.19,74.77,20.68z"></path>
</g>
<g id="SvgjsG1002" class="st0">
	<path class="st9" d="M82.59,21.76v10.51l-65.19,0.17V21.76c0-2.32,1.72-4.2,3.85-4.2h57.49C80.87,17.56,82.59,19.44,82.59,21.76z"></path>
	<path class="st10" d="M82.59,32.27v45.96c0,2.32-1.72,4.2-3.85,4.2H21.25c-2.12,0-3.85-1.88-3.85-4.2V32.44L82.59,32.27z"></path>
	<path class="st11" d="M35.07,73.66h-5.29c-2.01,0-3.63-1.63-3.63-3.63V40.4c0-2.01,1.63-3.63,3.63-3.63h5.29
		c2.01,0,3.63,1.63,3.63,3.63v29.63C38.7,72.03,37.08,73.66,35.07,73.66z"></path>
	<path class="st11" d="M53.02,55.81h-5.29c-2.01,0-3.63-1.63-3.63-3.63V40.4c0-2.01,1.63-3.63,3.63-3.63h5.29
		c2.01,0,3.63,1.63,3.63,3.63v11.78C56.66,54.19,55.03,55.81,53.02,55.81z"></path>
	<path class="st11" d="M71.03,66.17h-5.29c-2.01,0-3.63-1.63-3.63-3.63V40.4c0-2.01,1.63-3.63,3.63-3.63h5.29
		c2.01,0,3.63,1.63,3.63,3.63v22.14C74.67,64.54,73.04,66.17,71.03,66.17z"></path>
</g>
<g id="SvgjsG1001" class="st0">
	<path class="st12" d="M82.59,21.76v10.51l-65.19,0.17V21.76c0-2.32,1.72-4.2,3.85-4.2h57.49C80.87,17.56,82.59,19.44,82.59,21.76z"></path>
	<path class="st13" d="M82.59,32.27v45.96c0,2.32-1.72,4.2-3.85,4.2H21.25c-2.12,0-3.85-1.88-3.85-4.2V32.44L82.59,32.27z"></path>
	<path class="st14" d="M35.07,73.66h-5.29c-2.01,0-3.63-1.63-3.63-3.63V40.4c0-2.01,1.63-3.63,3.63-3.63h5.29
		c2.01,0,3.63,1.63,3.63,3.63v29.63C38.7,72.03,37.08,73.66,35.07,73.66z"></path>
	<path class="st14" d="M53.02,55.81h-5.29c-2.01,0-3.63-1.63-3.63-3.63V40.4c0-2.01,1.63-3.63,3.63-3.63h5.29
		c2.01,0,3.63,1.63,3.63,3.63v11.78C56.66,54.19,55.03,55.81,53.02,55.81z"></path>
	<path class="st14" d="M71.03,66.17h-5.29c-2.01,0-3.63-1.63-3.63-3.63V40.4c0-2.01,1.63-3.63,3.63-3.63h5.29
		c2.01,0,3.63,1.63,3.63,3.63v22.14C74.67,64.54,73.04,66.17,71.03,66.17z"></path>
</g>
<g id="SvgjsG1000">
	<path class="st15" d="M99.8,6.86v16.06L0.2,23.18V6.86c0-3.54,2.63-6.42,5.88-6.42h87.84C97.16,0.44,99.8,3.32,99.8,6.86z"></path>
	<path class="st16" d="M99.8,22.92v70.22c0,3.54-2.63,6.42-5.88,6.42H6.08c-3.25,0-5.88-2.87-5.88-6.42V23.18L99.8,22.92z"></path>
	<path class="st17" d="M29.11,86.14H17.19c-2.01,0-3.63-1.63-3.63-3.63v-49.1c0-2.01,1.63-3.63,3.63-3.63h11.91
		c2.01,0,3.63,1.63,3.63,3.63v49.1C32.74,84.51,31.11,86.14,29.11,86.14z"></path>
	<path class="st17" d="M56.54,58.88H44.62c-2.01,0-3.63-1.63-3.63-3.63V33.41c0-2.01,1.63-3.63,3.63-3.63h11.91
		c2.01,0,3.63,1.63,3.63,3.63v21.84C60.17,57.26,58.54,58.88,56.54,58.88z"></path>
	<path class="st17" d="M84.05,74.7H72.14c-2.01,0-3.63-1.63-3.63-3.63V33.41c0-2.01,1.63-3.63,3.63-3.63h11.91
		c2.01,0,3.63,1.63,3.63,3.63v37.66C87.69,73.07,86.06,74.7,84.05,74.7z"></path>
</g>
</svg><style>@media (prefers-color-scheme: light) { :root { filter: none; } }
</style></svg>